<svg width="71" height="71" viewBox="0 0 71 71" fill="none" xmlns="http://www.w3.org/2000/svg">
<path d="M69.6668 38.275C69.1985 37.1843 68.5862 36.163 67.8468 35.2393C67.0231 34.2257 66.1173 33.2838 65.1387 32.4232L62.288 30.1143L63.3187 27.9589C63.5372 27.4679 63.7415 26.9982 63.9265 26.5411C64.8568 24.2589 65.3731 22.1304 65.4665 20.2161C65.5775 17.8679 64.8357 15.6643 63.2641 13.6625C61.918 11.9554 60.2107 10.8125 58.1915 10.2732C57.059 9.95761 55.888 9.8061 54.7135 9.82321C53.489 9.83393 52.1905 9.96607 50.8514 10.2107L47.2924 11.0321L46.2723 8.87143C46.0421 8.41199 45.8042 7.95657 45.5587 7.50536C44.3782 5.34464 43.0603 3.60714 41.6402 2.34107C39.8977 0.7875 37.7341 0 35.211 0C33.0562 0 31.1111 0.639286 29.4337 1.90357C28.488 2.60882 27.6415 3.44149 26.9177 4.37857C26.1654 5.35536 25.4554 6.46607 24.8105 7.67857L23.2248 11.0107L20.9202 10.4714C20.3987 10.3643 19.8983 10.2696 19.4208 10.1857C17.0246 9.775 14.861 9.73571 12.9952 10.0732C10.7117 10.4839 8.75426 11.7071 7.18088 13.7071C5.83478 15.4161 5.11769 17.3554 5.04545 19.4714C5.00493 20.7036 5.11593 21.8607 5.38726 23.0089C5.66916 24.2125 6.08497 25.4661 6.61883 26.7357L8.20102 30.0768L6.35102 31.5643C5.94578 31.9107 5.55816 32.2446 5.19697 32.575C3.38221 34.2214 2.00616 35.9089 1.10231 37.5929C-0.000645649 39.6589 -0.279027 41.9714 0.281259 44.4678C0.762259 46.6 1.81059 48.3786 3.39983 49.7518C4.32307 50.5518 5.28507 51.1875 6.33869 51.6893C7.51371 52.2411 8.73257 52.6915 9.98231 53.0357C10.3224 53.1304 10.6871 53.225 11.1152 53.3375L13.5308 53.8821L13.5237 55.2268L13.5378 56.2571C13.5484 56.7946 13.5678 57.3107 13.596 57.8036C13.7334 60.2679 14.1774 62.4107 14.9156 64.1768C15.8195 66.3429 17.4316 68.0018 19.708 69.1143C21.0167 69.7676 22.4549 70.1108 23.9137 70.1179C24.5145 70.1179 25.1188 70.0589 25.7249 69.9393C26.8792 69.7199 27.9984 69.3414 29.0514 68.8143C30.1438 68.2714 31.2573 67.5821 32.3638 66.7679L35.2198 64.4643L37.0698 65.9679C37.4892 66.2857 37.8979 66.5929 38.2944 66.8786C40.2853 68.3071 42.2164 69.2911 44.0329 69.8071C44.8434 70.0357 45.6609 70.1518 46.4819 70.1518C47.9267 70.1518 49.3803 69.7946 50.8285 69.0875C52.7737 68.1393 54.2502 66.7071 55.2192 64.8321C55.7688 63.7808 56.1749 62.6586 56.4261 61.4964C56.6869 60.2875 56.849 58.975 56.9124 57.5964L56.9811 55.125L56.9635 53.8821L59.224 53.3661C59.7367 53.2339 60.2283 53.1018 60.6952 52.9643C63.035 52.2786 64.9978 51.3625 66.5324 50.2411C68.4124 48.8661 69.651 46.9018 70.2148 44.4089C70.694 42.2786 70.509 40.2161 69.6668 38.275ZM56.7063 33.7107C56.5089 34.1357 56.2024 34.7964 55.9663 35.3411L55.7865 35.7625C55.1153 37.3929 54.5796 39.0839 54.1938 40.7911C53.8104 42.5022 53.5687 44.2427 53.4714 45.9946L53.4432 46.5732C53.415 47.2071 53.3956 47.8893 53.3833 48.6089C53.3763 48.8946 53.3745 49.8286 53.3745 50.4893L53.3921 51.0571L53.3234 51.0732C52.89 51.1732 51.3413 51.5482 50.9677 51.6375L50.7299 51.6964C50.2876 51.8036 49.5406 51.9821 48.9486 52.1411L48.5046 52.2643C46.8255 52.7482 45.1869 53.3804 43.6329 54.1375C42.086 54.8929 40.5848 55.7911 39.1788 56.8018L38.7031 57.1464C38.1992 57.5214 37.6601 57.9303 37.0963 58.3678C36.8672 58.5428 36.1325 59.1357 35.6215 59.5482L35.2057 59.9053L32.9593 58.1107C32.5928 57.8214 32.0519 57.3928 31.6026 57.0536L31.2344 56.7803C28.4024 54.734 25.2477 53.1906 21.9051 52.2161L21.3572 52.0607C20.0624 51.6989 18.7581 51.3731 17.4457 51.0839L17.0581 51.0071V50.9393C17.0564 50.4893 17.0405 48.8732 17.037 48.4857L17.0334 48.2071C17.0299 47.7429 17.0229 46.9857 17.0035 46.3768L16.9824 45.9143C16.7979 42.3926 16.0221 38.9287 14.6884 35.6714L14.4664 35.1411C14.2197 34.5607 13.9466 33.9375 13.6524 33.2839C13.4127 32.7656 13.1695 32.2489 12.9229 31.7339L12.5882 31.0821L12.6516 31.0321C12.9987 30.75 14.2303 29.7357 14.5227 29.4911L14.6672 29.3732C15.0143 29.0875 15.6433 28.5696 16.1402 28.1411L16.4767 27.8429C19.0779 25.5035 21.2649 22.7301 22.9429 19.6429L23.2195 19.1304C23.5137 18.575 23.8221 17.9696 24.141 17.3286C24.2678 17.0786 24.6554 16.2661 24.9391 15.6732L25.1805 15.1196L25.2563 15.1357C25.6879 15.2321 27.2384 15.5786 27.6172 15.6607L27.8744 15.7179C28.322 15.8161 29.0584 15.9786 29.6452 16.0929L30.1033 16.1804C33.5475 16.7842 37.0684 16.7842 40.5126 16.1804L41.02 16.0911C41.6367 15.9768 42.2974 15.8446 42.9934 15.6982C43.2894 15.6375 44.2848 15.4071 44.9226 15.2607L45.349 15.1482L45.3772 15.2089C45.571 15.6143 46.2758 17.0661 46.4467 17.4107L46.5753 17.6732C46.7797 18.0929 47.1039 18.7625 47.3858 19.3071L47.5972 19.7036C48.4346 21.2498 49.4001 22.7212 50.4832 24.1018C51.558 25.4661 52.7561 26.75 54.0475 27.9196L54.4757 28.3036C54.9479 28.7179 55.4606 29.1607 56.0085 29.6179C56.2112 29.7929 56.8631 30.3196 57.3652 30.725L57.9026 31.1357L57.8691 31.2054C57.6771 31.6107 57.0005 33.0714 56.8384 33.4232L56.7063 33.7107ZM51.4822 13.725C52.6239 13.5143 53.7216 13.4036 54.7488 13.3929C55.5892 13.3964 56.4279 13.4929 57.2912 13.725C58.5809 14.0696 59.6345 14.7786 60.5067 15.8893C61.5462 17.2107 62.0166 18.5679 61.9462 20.0429C61.8757 21.5482 61.4458 23.275 60.6705 25.1768C60.4979 25.5982 60.3094 26.0339 60.1014 26.4982L59.476 27.8357L59.4601 27.8214L59.4495 27.8446C58.9915 27.4732 58.4488 27.0339 58.262 26.875C57.7334 26.4286 57.2401 26.0089 56.7908 25.6107L56.3944 25.2571C54.0982 23.1806 52.1677 20.7228 50.6858 17.9893L50.5026 17.6411C50.2418 17.1339 49.93 16.4946 49.7362 16.0946L49.6005 15.8179L48.8482 14.2732L51.4822 13.725ZM27.9132 9.37143C28.4629 8.33571 29.062 7.39643 29.6945 6.57679C30.2244 5.89242 30.8438 5.28444 31.5357 4.76964C32.6069 3.9625 33.8085 3.56964 35.211 3.56964C36.876 3.56964 38.2168 4.04464 39.3127 5.02321C40.428 6.01786 41.4922 7.43393 42.4754 9.2375C42.6938 9.63393 42.9123 10.0536 43.1414 10.5089L43.7827 11.8375L43.7615 11.8429L43.7704 11.8643C42.646 12.1316 41.515 12.3697 40.3787 12.5786L39.8713 12.6696C36.8377 13.1933 33.7384 13.1903 30.7058 12.6607L30.3217 12.5893C29.7562 12.4786 29.0532 12.3214 28.625 12.2286L28.3607 12.1696L26.6922 11.8L27.9132 9.37143ZM9.9365 15.9339C10.976 14.6125 12.1776 13.8464 13.6136 13.5893C14.2974 13.4706 14.9901 13.4132 15.6838 13.4179C16.6511 13.4179 17.7047 13.5143 18.8376 13.7089C19.2799 13.7839 19.7397 13.8732 20.2225 13.9732L20.5872 14.0518C20.8568 14.1125 21.1651 14.1804 21.1739 14.1804L21.6602 14.2964L21.6514 14.3161L21.6708 14.3214C21.4171 14.8571 21.114 15.4893 21.0013 15.7089C20.6929 16.3321 20.3952 16.9107 20.115 17.4446L19.8613 17.9143C18.3754 20.6449 16.4406 23.0986 14.1404 25.1696L13.8462 25.4304C13.381 25.8321 12.7784 26.3268 12.4472 26.6L12.2957 26.725C12.0948 26.8929 11.4623 27.4143 10.9743 27.8143L9.8625 25.3339C9.42676 24.3138 9.07666 23.2583 8.81593 22.1786C8.61847 21.332 8.53549 20.4621 8.56926 19.5929C8.61507 18.2411 9.06259 17.0446 9.9365 15.9339ZM11.9592 49.8679C11.5892 49.7714 11.2456 49.6839 10.9232 49.5929C9.86569 49.3021 8.83426 48.9216 7.83983 48.4554C7.06294 48.0834 6.33976 47.6058 5.69031 47.0357C4.67545 46.1607 4.03235 45.0607 3.71874 43.6732C3.34874 42.0268 3.50731 40.5964 4.2015 39.2982C4.91154 37.9732 6.0374 36.6071 7.54912 35.2339C7.88564 34.9304 8.24154 34.6196 8.62212 34.2982L9.76207 33.3643L9.76912 33.3804L9.78673 33.3643C10.0422 33.9 10.3435 34.5375 10.4457 34.7643C10.7329 35.4 10.9936 35.9946 11.228 36.5446L11.4341 37.0429C12.6163 39.9242 13.3034 42.9892 13.4656 46.1054L13.4832 46.4982C13.5008 47.075 13.5079 47.7964 13.5114 48.2411L13.5132 48.5321L13.5308 50.2589L11.9592 49.8679ZM30.2971 63.8786C29.3527 64.5732 28.4101 65.1571 27.4939 65.6143C26.7239 65.9981 25.9059 66.2739 25.0625 66.4339C23.7498 66.6857 22.5006 66.5125 21.2374 65.8982C19.7362 65.1643 18.7302 64.1446 18.1628 62.7857C17.5832 61.3982 17.2308 59.6536 17.1163 57.6C17.0901 57.12 17.0719 56.6396 17.0616 56.1589L17.0493 55.1839L17.0511 54.6768L17.0722 54.6821V54.6607C17.6431 54.7929 18.3196 54.95 18.5593 55.0125C19.2288 55.1804 19.8507 55.3446 20.4181 55.5018L20.9308 55.65C22.4143 56.0839 23.8591 56.6411 25.2245 57.3107C26.5988 57.9786 27.9326 58.7786 29.1871 59.6875L29.5042 59.9214C29.9271 60.2429 30.4433 60.65 30.7922 60.9268L32.4343 62.2304L30.2971 63.8786ZM53.3939 57.4357C53.3496 58.5454 53.2128 59.6493 52.9851 60.7357C52.8004 61.5856 52.5029 62.4061 52.1006 63.175C51.4822 64.3714 50.5678 65.2518 49.301 65.8714C47.8016 66.6036 46.3903 66.7643 44.9843 66.3661C43.5572 65.9625 41.9908 65.1553 40.3364 63.9678C39.9664 63.7 39.5876 63.4161 39.1947 63.1143L38.0389 62.1911L38.0565 62.1804L38.0389 62.1661C38.497 61.7946 39.0432 61.3571 39.237 61.2071C39.7832 60.7821 40.2959 60.3911 40.8297 59.9964L41.2085 59.7232C43.7182 57.9125 46.5155 56.5511 49.4789 55.6982L49.8436 55.5964C50.4092 55.4446 51.1245 55.2732 51.5492 55.1714L51.7958 55.1107L53.452 54.7107L53.4591 55.1125L53.3939 57.4357ZM66.7791 43.6143C66.4091 45.2607 65.655 46.4821 64.471 47.3464C63.2676 48.225 61.6678 48.9607 59.7138 49.5357C59.2822 49.6625 58.8294 49.7857 58.3501 49.9089L56.923 50.2482V50.225L56.8983 50.2286C56.9001 49.6357 56.9018 48.9321 56.9071 48.6839C56.9194 47.9875 56.9388 47.3357 56.9653 46.7268L56.9917 46.1982C57.1602 43.0842 57.8526 40.0222 59.039 37.1446L59.1923 36.7786C59.4161 36.2661 59.7085 35.6357 59.8971 35.2304L60.0345 34.9304L60.7586 33.3679L62.8218 35.1125C63.6993 35.8911 64.471 36.6911 65.1158 37.4946C65.6479 38.1554 66.0831 38.8839 66.4443 39.7161C66.9835 40.9536 67.0927 42.2286 66.7791 43.6143Z" fill="url(#paint0_linear_57001_493)"/>
<defs>
<linearGradient id="paint0_linear_57001_493" x1="16.5084" y1="6.7125" x2="56.5633" y2="65.3033" gradientUnits="userSpaceOnUse">
<stop offset="0.09" stop-color="#FD9700"/>
<stop offset="0.28" stop-color="#FF4400"/>
<stop offset="0.49" stop-color="#FF2469"/>
<stop offset="0.78" stop-color="#C65CFF"/>
<stop offset="1" stop-color="#0092FF"/>
</linearGradient>
</defs>
</svg>
